<?xml version="1.0"?>
<svg  x="0" y="0" viewBox="0 0 512 512" xmlns="http://www.w3.org/2000/svg" xmlns:xlink="http://www.w3.org/1999/xlink"><g transform="matrix(-0.73,0,0,0.73,442.8807919311523,69.12013389587398)"><g xmlns="http://www.w3.org/2000/svg"><g><path clip-rule="evenodd" d="m440.992 119.141c-17.477 7.925-29.683 25.562-29.683 45.94 0 4.082 3.335 7.448 7.443 7.448h85.805c4.109 0 7.443-3.367 7.443-7.448 0-20.378-12.207-38.015-29.683-45.94-11.225-7.21-28.552-8.133-41.325 0z" fill="#fd4755" fill-rule="evenodd" data-original="#fd4755" style="" class=""/></g><g><path clip-rule="evenodd" d="m440.992 279.454c-17.477 7.925-29.683 25.562-29.683 45.94 0 4.082 3.335 7.448 7.443 7.448h85.805c4.109 0 7.443-3.367 7.443-7.448 0-20.378-12.207-38.015-29.683-45.94-11.225-8.58-28.552-9.593-41.325 0z" fill="#fdb440" fill-rule="evenodd" data-original="#fdb440" style="" class=""/></g><g><path clip-rule="evenodd" d="m461.654 220.793c-18.191 0-32.958 14.747-32.958 32.98 0 10.368 4.793 19.633 12.296 25.681 5.657 4.558 12.832 7.299 20.662 7.299s15.005-2.741 20.662-7.299c7.503-6.048 12.296-15.313 12.296-25.681.001-18.233-14.766-32.98-32.958-32.98z" fill="#ffe5c1" fill-rule="evenodd" data-original="#ffe5c1" style="" class=""/></g><g><path clip-rule="evenodd" d="m440.992 438.486c-17.477 7.925-29.683 25.592-29.683 45.94 0 4.111 3.335 7.478 7.443 7.478h85.805c4.109 0 7.443-3.367 7.443-7.478 0-20.348-12.207-38.015-29.683-45.94-10.242-5.184-30.666-5.839-41.325 0z" fill="#80d261" fill-rule="evenodd" data-original="#80d261" style=""/></g><g><path clip-rule="evenodd" d="m461.654 60.48c-18.191 0-32.958 14.777-32.958 32.98 0 10.368 4.793 19.633 12.296 25.681 5.657 4.558 12.832 7.299 20.662 7.299s15.005-2.741 20.662-7.299c7.503-6.048 12.296-15.313 12.296-25.681.001-18.203-14.766-32.98-32.958-32.98z" fill="#ffe5c1" fill-rule="evenodd" data-original="#ffe5c1" style="" class=""/></g><g><path clip-rule="evenodd" d="m461.654 379.825c-18.191 0-32.958 14.777-32.958 32.98 0 10.398 4.793 19.663 12.296 25.681 5.657 4.558 12.832 7.299 20.662 7.299s15.005-2.741 20.662-7.299c7.503-6.018 12.296-15.284 12.296-25.681.001-18.203-14.766-32.98-32.958-32.98z" fill="#ffe5c1" fill-rule="evenodd" data-original="#ffe5c1" style="" class=""/></g><g><path clip-rule="evenodd" d="m461.654 379.825c-3.394 0-6.669.536-9.736 1.46 13.457 4.171 23.223 16.714 23.223 31.52 0 10.398-4.793 19.663-12.296 25.681-3.186 2.592-6.907 4.588-10.927 5.839 3.067.953 6.342 1.46 9.736 1.46 7.83 0 15.005-2.741 20.662-7.299 7.503-6.018 12.296-15.284 12.296-25.681.001-18.203-14.766-32.98-32.958-32.98z" fill="#fed1a3" fill-rule="evenodd" data-original="#fed1a3" style="" class=""/></g><g><path clip-rule="evenodd" d="m494.613 93.46c0-18.203-14.767-32.98-32.958-32.98-3.394 0-6.669.506-9.736 1.46 13.457 4.141 23.223 16.684 23.223 31.52 0 7.716-2.65 14.807-7.086 20.438-1.518 1.936-3.275 3.694-5.21 5.243-3.186 2.592-6.907 4.588-10.927 5.839 3.067.924 6.342 1.46 9.736 1.46 7.83 0 15.005-2.741 20.662-7.299 7.502-6.048 12.296-15.313 12.296-25.681z" fill="#fed1a3" fill-rule="evenodd" data-original="#fed1a3" style="" class=""/></g><g><path clip-rule="evenodd" d="m475.141 253.773c0 7.329-2.382 14.092-6.431 19.574-1.697 2.264-3.662 4.32-5.865 6.107-3.186 2.592-6.907 4.588-10.927 5.81 3.067.953 6.342 1.49 9.736 1.49 7.83 0 15.005-2.741 20.662-7.299 7.503-6.048 12.296-15.313 12.296-25.681 0-18.233-14.767-32.98-32.958-32.98-3.394 0-6.669.506-9.736 1.46 13.458 4.14 23.223 16.682 23.223 31.519z" fill="#fed1a3" fill-rule="evenodd" data-original="#fed1a3" style="" class=""/></g><g><path clip-rule="evenodd" d="m512 484.426c0-20.348-12.207-38.015-29.683-45.94-2.739 2.205-5.806 3.992-9.14 5.243 12.564 9.176 20.752 24.013 20.752 40.697 0 4.111-3.364 7.478-7.443 7.478h18.072c4.107 0 7.442-3.366 7.442-7.478z" fill="#4fc122" fill-rule="evenodd" data-original="#4fc122" style=""/></g><g><path clip-rule="evenodd" d="m512 325.394c0-20.378-12.207-38.015-29.683-45.94-2.739 2.205-5.806 3.962-9.14 5.214 12.564 9.176 20.752 24.043 20.752 40.726 0 4.082-3.364 7.448-7.443 7.448h18.072c4.107 0 7.442-3.366 7.442-7.448z" fill="#fe9900" fill-rule="evenodd" data-original="#fe9900" style="" class=""/></g><g><path clip-rule="evenodd" d="m482.317 119.141c-2.739 2.205-5.806 3.962-9.14 5.214 12.564 9.206 20.752 24.043 20.752 40.726 0 4.082-3.364 7.448-7.443 7.448h18.072c4.109 0 7.443-3.367 7.443-7.448-.001-20.378-12.208-38.015-29.684-45.94z" fill="#e41e2b" fill-rule="evenodd" data-original="#e41e2b" style="" class=""/></g><g fill="#6d80aa"><path d="m316.87 149.515h31.221l-9.633 8.353c-3.225 2.797-3.574 7.679-.78 10.905 1.528 1.765 3.679 2.669 5.842 2.669 1.794 0 3.596-.621 5.056-1.889l22.32-19.353c2.447-2.136 3.858-5.185 3.874-8.366.016-3.192-1.375-6.271-3.816-8.446-.027-.024-.055-.049-.084-.073l-22.299-19.306c-3.225-2.792-8.105-2.44-10.898.788-2.792 3.228-2.44 8.111.788 10.905l9.644 8.349h-31.235c-4.268 0-7.726 3.461-7.726 7.731 0 4.272 3.459 7.733 7.726 7.733z" fill="#6d80aa" data-original="#6d80aa" style="" class=""/><path d="m370.875 274.774-22.299-19.335c-3.222-2.796-8.104-2.448-10.898.78-2.795 3.226-2.446 8.109.78 10.905l9.634 8.353h-31.222c-4.268 0-7.726 3.461-7.726 7.731s3.459 7.731 7.726 7.731h31.254l-9.667 8.383c-3.225 2.797-3.574 7.679-.78 10.905 1.528 1.765 3.679 2.669 5.842 2.669 1.794 0 3.596-.621 5.056-1.889l22.32-19.353c2.463-2.151 3.875-5.225 3.874-8.434.001-3.208-1.412-6.281-3.894-8.446z" fill="#6d80aa" data-original="#6d80aa" style="" class=""/><path d="m370.875 426.685-22.299-19.335c-3.222-2.796-8.104-2.448-10.898.78-2.795 3.226-2.446 8.109.78 10.905l9.632 8.352h-31.22c-4.268 0-7.726 3.461-7.726 7.731s3.459 7.731 7.726 7.731h31.236l-9.644 8.349c-3.227 2.794-3.579 7.676-.788 10.905 1.528 1.768 3.681 2.673 5.846 2.673 1.792 0 3.592-.62 5.052-1.885l22.299-19.305c.028-.024.055-.048.084-.073 2.442-2.175 3.832-5.255 3.816-8.448-.017-3.179-1.43-6.227-3.896-8.38z" fill="#6d80aa" data-original="#6d80aa" style="" class=""/></g><g><path clip-rule="evenodd" d="m136.24 134.425c-48.768.804-97.565 37.568-97.565 110.083l105.752 20.527 89.407-20.527c0-72.515-48.797-109.279-97.594-110.083z" fill="#6d80aa" fill-rule="evenodd" data-original="#6d80aa" style="" class=""/></g><g><path clip-rule="evenodd" d="m0 458.835v25.8c0 2.592 1.28 4.916 3.215 6.346 1.31.953 2.918 1.519 4.645 1.519h256.789c1.727 0 3.335-.566 4.615-1.519 1.965-1.43 3.245-3.754 3.245-6.346v-25.8c0-45.374-30.844-58.095-62.403-66.973h-147.703c-31.559 8.877-62.403 21.599-62.403 66.973z" fill="#22a6fe" fill-rule="evenodd" data-original="#22a6fe" style="" class=""/></g><g><path clip-rule="evenodd" d="m62.403 391.861 60.617 35.572c10.272 6.644 16.167 6.644 26.468 0l60.617-35.572c-5.627-1.579-11.284-3.039-16.792-4.558-12.832-3.486-16.196-20.021-18.846-25.383h-76.455c-2.62 5.363-6.014 21.897-18.816 25.383-5.509 1.519-11.166 2.979-16.793 4.558z" fill="#fed1a3" fill-rule="evenodd" data-original="#fed1a3" style="" class=""/></g><g><path clip-rule="evenodd" d="m38.675 274.36c0 30.925 25.664 68.821 59.337 87.56 4.466 2.473 9.081 4.618 13.815 6.376 17.655 6.554 31.172 6.554 48.857 0 4.704-1.758 9.319-3.903 13.785-6.376 33.703-18.739 59.367-56.635 59.367-87.56v-29.852c-39.508-2.771-33.613-32.921-60.885-25.919-21.079 5.452-28.879 8.163-36.71 8.163s-15.631-2.711-36.71-8.163c-27.242-7.001-21.347 23.149-60.855 25.919v29.852z" fill="#ffe5c1" fill-rule="evenodd" data-original="#ffe5c1" style="" class=""/></g><g><path clip-rule="evenodd" d="m148.506 397.998c3.751-1.102 7.949-2.8 11.195-3.843 2.709-.864 4.406-1.579 8.128 1.37l15.184 12.215 27.093-15.879c-5.627-1.579-11.284-3.039-16.792-4.558-12.832-3.486-16.196-20.021-18.846-25.383-4.466 2.473-9.081 4.618-13.785 6.376-17.685 6.554-31.202 6.554-48.857 0-4.734-1.758-9.349-3.903-13.815-6.376-1.935 3.962-4.287 14.062-10.599 20.438 18.757 12.899 42.754 21.003 61.094 15.64z" fill="#ffbc85" fill-rule="evenodd" data-original="#ffbc85" style="" class=""/></g><g><path clip-rule="evenodd" d="m127.754 134.931c32.72 11.113 60.409 39.892 66.244 86.249.089.745.179 1.49.268 2.234 8.187 7.418 15.363 19.395 39.568 21.093 0-72.515-48.797-109.279-97.595-110.083-2.828.06-5.656.239-8.485.507z" fill="#49679b" fill-rule="evenodd" data-original="#49679b" style="" class=""/></g><g><path clip-rule="evenodd" d="m195.13 269.652c0 41.531-43.379 89.109-85.894 97.63.863.357 1.727.685 2.59 1.013 17.655 6.554 31.172 6.554 48.857 0 4.704-1.758 9.319-3.903 13.785-6.376 33.703-18.739 59.367-56.635 59.367-87.56v-29.852c-24.205-1.698-31.38-13.675-39.568-21.093 1.607 14.569.863 31.61.863 46.238z" fill="#fed1a3" fill-rule="evenodd" data-original="#fed1a3" style="" class=""/></g><g><path clip-rule="evenodd" d="m183.012 407.74c31.559 8.878 62.403 21.6 62.403 67.003v16.237 1.519h19.233c1.727 0 3.335-.566 4.615-1.519 1.965-1.43 3.245-3.754 3.245-6.346v-25.8c0-45.374-30.844-58.095-62.403-66.973z" fill="#0182fc" fill-rule="evenodd" data-original="#0182fc" style=""/></g><g><path d="m136.419 338.966c-8.319 0-16.637-3.169-22.97-9.505-3.018-3.02-3.018-7.915 0-10.935 3.017-3.018 7.909-3.018 10.927 0 6.641 6.646 17.446 6.646 24.086 0 3.017-3.018 7.909-3.018 10.927 0 3.018 3.02 3.018 7.914 0 10.935-6.334 6.336-14.652 9.505-22.97 9.505z" fill="#6d80aa" data-original="#6d80aa" style="" class=""/></g><g><path d="m114.385 281.793c-1.931 0-3.863-.72-5.363-2.166-2.846-2.746-7.634-2.751-10.457-.014-3.064 2.973-7.956 2.894-10.926-.169-2.97-3.066-2.894-7.961.17-10.933 8.788-8.525 23.116-8.531 31.94-.014 3.071 2.965 3.16 7.859.198 10.933-1.516 1.572-3.538 2.363-5.562 2.363z" fill="#6d80aa" data-original="#6d80aa" style="" class=""/></g><g><path d="m179.677 281.793c-1.931 0-3.863-.72-5.363-2.166-2.895-2.794-7.605-2.796-10.501 0-3.071 2.964-7.963 2.873-10.925-.197-2.962-3.073-2.874-7.968.198-10.933 8.81-8.501 23.145-8.502 31.955 0 3.071 2.965 3.16 7.859.198 10.933-1.516 1.572-3.538 2.363-5.562 2.363z" fill="#6d80aa" data-original="#6d80aa" style="" class=""/></g><g><path clip-rule="evenodd" d="m237.258 79.785 18.012 25.83 30.13 9.176c3.007.924 3.483 2.354 1.608 4.856l-19.025 25.145.625 31.52c.06 3.128-1.191 4.022-4.138 3.009l-29.773-10.308-29.773 10.308c-2.947 1.013-4.198.119-4.138-3.009l.595-31.52-18.995-25.145c-1.876-2.503-1.399-3.933 1.578-4.856l30.16-9.176 18.012-25.83c1.788-2.592 3.306-2.592 5.122 0z" fill="#fdb440" fill-rule="evenodd" data-original="#fdb440" style="" class=""/></g><g><path clip-rule="evenodd" d="m285.4 114.791-30.13-9.176-15.184-21.778c2.977 10.07 4.645 21.182 4.645 32.921 0 20.467-5.061 39.177-13.398 53.418l3.364-1.162 29.773 10.308c2.948 1.013 4.198.119 4.138-3.009l-.625-31.52 19.025-25.145c1.876-2.503 1.4-3.933-1.608-4.857z" fill="#fe9900" fill-rule="evenodd" data-original="#fe9900" style="" class=""/></g><g><path d="m235.591 52.183c-4.267 0-7.726-3.461-7.726-7.731v-17.22c0-4.27 3.459-7.731 7.726-7.731s7.726 3.461 7.726 7.731v17.22c0 4.27-3.459 7.731-7.726 7.731z" fill="#fdb440" data-original="#fdb440" style="" class=""/></g><g><path d="m187.918 72.502c-1.277 0-2.57-.317-3.764-.985l-15.333-8.58c-3.724-2.084-5.055-6.794-2.972-10.521s6.79-5.058 10.515-2.975l15.333 8.58c3.724 2.084 5.055 6.794 2.972 10.521-1.416 2.533-4.044 3.96-6.751 3.96z" fill="#fdb440" data-original="#fdb440" style="" class=""/></g><g><path d="m283.264 72.502c-2.707 0-5.335-1.426-6.75-3.959-2.083-3.727-.752-8.437 2.973-10.521l15.333-8.58c3.723-2.083 8.431-.752 10.514 2.975 2.082 3.727.751 8.437-2.973 10.521l-15.333 8.58c-1.194.667-2.488.984-3.764.984z" fill="#fdb440" data-original="#fdb440" style="" class=""/></g></g><g xmlns="http://www.w3.org/2000/svg"><path d="" style="fill:none;stroke:#000;stroke-width:15;stroke-linecap:round;stroke-linejoin:round;stroke-miterlimit:10" fill=""/></g></g></svg>
