<svg  viewBox="0 0 512 512" xmlns="http://www.w3.org/2000/svg" xmlns:xlink="http://www.w3.org/1999/xlink"><g><g><path clip-rule="evenodd" d="m112.005 164.992v11.564c0 14.776 16.548 29.845 31.169 29.64l18.562-23.683-20.721-29.231h-17.336c-6.42 0-11.674 5.256-11.674 11.71z" fill="#ffbc85" fill-rule="evenodd"/></g><g><path clip-rule="evenodd" d="m370.992 153.282-21.859 22.252 19.7 30.662c14.622.204 31.17-14.864 31.17-29.64v-11.564c0-6.454-5.253-11.71-11.674-11.71z" fill="#ffbc85" fill-rule="evenodd"/></g><g><path clip-rule="evenodd" d="m435.843 512h-359.678c-7.582 0-10.014-2.071-8.983-9.9l12.806-99.343c8.087-62.462 60.793-72.537 103.639-84.22 1.226-.35 2.39-.793 3.503-1.319h137.749c1.082.525 2.246.968 3.503 1.319 42.846 11.683 95.552 21.758 103.608 84.22l12.836 99.343c1 7.829-1.401 9.9-8.983 9.9z" fill="#22a6fe" fill-rule="evenodd"/></g><g><path clip-rule="evenodd" d="m187.127 317.222 51.862 30.779c13.162 7.709 20.867 7.709 34.03 0l51.862-30.779c-12.258-5.928-15.847-22.807-18.678-28.589-6.858 4.234-93.567 4.234-100.396 0-2.832 5.782-6.451 22.661-18.68 28.589z" fill="#fed1a3" fill-rule="evenodd"/></g><g><path clip-rule="evenodd" d="m141.015 188.47c0 5.753.73 11.71 2.16 17.726 7.209 30.575 31.607 63.281 62.631 82.437 6.829 4.234 14.009 7.797 21.393 10.542 10.419 3.855 19.612 5.782 28.805 5.782s18.387-1.927 28.805-5.782c7.384-2.745 14.534-6.308 21.393-10.542 31.024-19.157 55.422-51.863 62.631-82.437 1.401-6.016 2.16-11.973 2.16-17.726v-35.189c-175.518-92.629-52.591-95.432-229.977 0v35.189z" fill="#ffe5c1" fill-rule="evenodd"/></g><g><path clip-rule="evenodd" d="m256.004 23.566c-57.494.964-114.988 44.27-114.988 129.716 46.55-3.241 39.604-38.81 71.736-30.516 24.836 6.395 34.03 9.607 43.252 9.607s18.416-3.212 43.252-9.607c32.133-8.293 25.187 27.275 71.736 30.516 0-24.705-4.815-45.876-13.016-63.515-2.743-4.497-19.554-41.175-43.982-49.585-17.686-10.717-37.824-16.265-57.99-16.616z" fill="#6d80aa" fill-rule="evenodd"/></g><g><path clip-rule="evenodd" d="m313.994 40.182c-3.21 7.855-5.341 15.389-5.341 21.055 0 28.968 29.769 38.488 49.322 28.53 9.514-4.877 16.606-14.397 16.606-28.53 0-15.039-15.118-43.365-25.187-55.951-2.83-3.534-5.281-5.286-7.733-5.286h-.058c-2.452 0-4.932 1.752-7.734 5.286-6.304 7.855-14.563 21.843-19.875 34.896z" fill="#22a6fe" fill-rule="evenodd"/></g><g><path clip-rule="evenodd" d="m278.622 322.8c5.137-2.599 3.24-3.855 9.281-.029 3.24 2.073 8.084 4.789 14.009 8.06l22.969-13.608c-12.258-5.928-15.847-22.807-18.678-28.589-6.858 4.234-14.009 7.797-21.393 10.542-10.419 3.855-19.612 5.782-28.805 5.782s-18.386-1.927-28.805-5.782c-7.384-2.745-14.563-6.308-21.393-10.542-1.576 3.212-3.385 9.783-6.742 16.061 21.683 14.688 48.563 33.815 79.557 18.105z" fill="#ffbc85" fill-rule="evenodd"/></g><g><path clip-rule="evenodd" d="m237.296 25.377c24.311 2.628 55.276 15.127 71.415 34.342.321-5.461 2.364-12.352 5.282-19.536-17.686-10.717-37.824-16.266-57.99-16.616-6.245.116-12.52.7-18.707 1.81z" fill="#49679b" fill-rule="evenodd"/></g><g><path clip-rule="evenodd" d="m328.762 91.286c6.07 13.141 10.273 28.238 11.995 45.292.233 2.395.438 4.818.555 7.301 6.829 4.643 15.906 8.439 29.681 9.403 0-24.705-4.815-45.876-13.016-63.515-8.874 4.497-19.876 5.023-29.215 1.519z" fill="#49679b" fill-rule="evenodd"/></g><g><path clip-rule="evenodd" d="m341.632 154.421v35.218c0 5.724-.759 11.681-2.189 17.696-7.179 30.575-31.578 63.281-62.602 82.437-6.858 4.234-14.038 7.797-21.422 10.542-3.94 1.46-7.734 2.657-11.411 3.563 4.057.73 8.026 1.08 11.995 1.08 9.193 0 18.387-1.927 28.805-5.782 7.384-2.745 14.534-6.308 21.393-10.542 31.024-19.157 55.422-51.863 62.631-82.437 1.401-6.016 2.16-11.973 2.16-17.726v-35.189c-13.775-.964-22.852-4.76-29.681-9.403.204 3.446.321 6.98.321 10.543z" fill="#fed1a3" fill-rule="evenodd"/></g><g><path clip-rule="evenodd" d="m409.049 416.392 12.345 95.608h14.447c7.588 0 9.981-2.073 8.989-9.9l-12.841-99.345c-8.055-62.463-60.763-72.538-103.606-84.219-1.255-.35-2.422-.788-3.502-1.314l-22.969 13.608c34.934 15.507 98.498 18.602 107.137 85.562z" fill="#0182fc" fill-rule="evenodd"/></g><g><path clip-rule="evenodd" d="m336.291 2.599c9.689 14.046 21.393 37.554 21.393 50.782 0 9.286-3.035 16.558-7.822 21.843-2.539 2.774-5.516 4.994-8.814 6.687-6.771 3.446-14.797 4.556-22.385 3.329 2.948 2.628 6.391 4.672 10.098 6.045 9.339 3.504 20.342 2.979 29.214-1.519 9.514-4.877 16.606-14.397 16.606-28.53 0-15.039-15.118-43.365-25.187-55.951-2.83-3.533-5.281-5.285-7.733-5.285h-.058c-1.722 0-3.444.876-5.312 2.599z" fill="#0182fc" fill-rule="evenodd"/></g><g><path d="m155.111 448.292c-4.265 0-7.727 3.462-7.727 7.727v55.981h15.453v-55.982c0-4.265-3.461-7.726-7.726-7.726zm201.756 0c-4.265 0-7.727 3.462-7.727 7.727v55.981h15.453v-55.982c0-4.265-3.461-7.726-7.726-7.726z" fill="#0182fc"/></g><g><path d="m273.719 259.449c-1.982 0-3.964-.758-5.473-2.273-3.269-3.28-7.616-5.087-12.243-5.087-4.626 0-8.973 1.806-12.242 5.087-3.011 3.022-7.904 3.031-10.927.02-3.022-3.012-3.031-7.904-.019-10.927 6.188-6.211 14.424-9.632 23.188-9.632 8.765 0 17 3.421 23.189 9.632 3.012 3.023 3.003 7.915-.019 10.927-1.508 1.502-3.481 2.253-5.454 2.253z" fill="#6d80aa"/></g><g><path d="m214.385 200.433c-5.833 0-11.667-2.145-16.108-6.435-3.07-2.965-3.154-7.856-.189-10.925 2.965-3.068 7.856-3.155 10.926-.189 2.912 2.814 7.832 2.812 10.744 0 3.07-2.965 7.96-2.881 10.926.189 2.965 3.069 2.88 7.96-.189 10.925-4.442 4.29-10.276 6.435-16.11 6.435z" fill="#6d80aa"/></g><g><path d="m297.621 200.433c-5.833 0-11.667-2.145-16.108-6.435-3.069-2.965-3.154-7.856-.189-10.925 2.965-3.068 7.856-3.155 10.926-.189 2.913 2.814 7.833 2.812 10.744 0 3.07-2.965 7.961-2.881 10.926.189 2.965 3.069 2.88 7.96-.189 10.925-4.442 4.29-10.276 6.435-16.11 6.435z" fill="#6d80aa"/></g></g></svg>